M48
INCH
T1C0.0276
T2C0.0394
%
G90
G05
T1
X5.731Y-4.0442
X6.031Y-4.0442
T2
X5.502Y-4.316
X5.502Y-4.416
X5.502Y-4.516
X5.502Y-4.616
X5.502Y-4.716
X5.502Y-4.816
X5.503Y-3.9266
X5.503Y-4.0266
X5.503Y-4.1266
X5.899Y-4.3236
X5.899Y-4.4236
X5.899Y-4.5236
X6.277Y-4.117
X6.277Y-4.217
X6.277Y-4.317
X6.277Y-4.417
X6.277Y-4.517
X6.277Y-4.617
T0
M30
