%TF.GenerationSoftware,KiCad,Pcbnew,(6.0.7)*%
%TF.CreationDate,2023-10-13T12:13:47+05:30*%
%TF.ProjectId,serial to UPDI,73657269-616c-4207-946f-20555044492e,rev?*%
%TF.SameCoordinates,Original*%
%TF.FileFunction,Copper,L1,Top*%
%TF.FilePolarity,Positive*%
%FSLAX46Y46*%
G04 Gerber Fmt 4.6, Leading zero omitted, Abs format (unit mm)*
G04 Created by KiCad (PCBNEW (6.0.7)) date 2023-10-13 12:13:47*
%MOMM*%
%LPD*%
G01*
G04 APERTURE LIST*
%ADD10C,0.350000*%
%TA.AperFunction,NonConductor*%
%ADD11C,0.350000*%
%TD*%
%TA.AperFunction,ComponentPad*%
%ADD12R,1.700000X1.700000*%
%TD*%
%TA.AperFunction,ComponentPad*%
%ADD13O,1.700000X1.700000*%
%TD*%
%TA.AperFunction,ComponentPad*%
%ADD14C,1.400000*%
%TD*%
%TA.AperFunction,ComponentPad*%
%ADD15O,1.400000X1.400000*%
%TD*%
%TA.AperFunction,Conductor*%
%ADD16C,0.457200*%
%TD*%
G04 APERTURE END LIST*
D10*
D11*
X162445342Y-99682209D02*
X163207247Y-99682209D01*
X163207247Y-98082209D01*
X161912009Y-98082209D02*
X161912009Y-99377447D01*
X161835819Y-99529828D01*
X161759628Y-99606019D01*
X161607247Y-99682209D01*
X161302485Y-99682209D01*
X161150104Y-99606019D01*
X161073914Y-99529828D01*
X160997723Y-99377447D01*
X160997723Y-98082209D01*
X160235819Y-99682209D02*
X160235819Y-98082209D01*
X159702485Y-99225066D01*
X159169152Y-98082209D01*
X159169152Y-99682209D01*
X158102485Y-98082209D02*
X157797723Y-98082209D01*
X157645342Y-98158400D01*
X157492961Y-98310780D01*
X157416771Y-98615542D01*
X157416771Y-99148876D01*
X157492961Y-99453638D01*
X157645342Y-99606019D01*
X157797723Y-99682209D01*
X158102485Y-99682209D01*
X158254866Y-99606019D01*
X158407247Y-99453638D01*
X158483438Y-99148876D01*
X158483438Y-98615542D01*
X158407247Y-98310780D01*
X158254866Y-98158400D01*
X158102485Y-98082209D01*
X156807247Y-99606019D02*
X156578676Y-99682209D01*
X156197723Y-99682209D01*
X156045342Y-99606019D01*
X155969152Y-99529828D01*
X155892961Y-99377447D01*
X155892961Y-99225066D01*
X155969152Y-99072685D01*
X156045342Y-98996495D01*
X156197723Y-98920304D01*
X156502485Y-98844114D01*
X156654866Y-98767923D01*
X156731057Y-98691733D01*
X156807247Y-98539352D01*
X156807247Y-98386971D01*
X156731057Y-98234590D01*
X156654866Y-98158400D01*
X156502485Y-98082209D01*
X156121533Y-98082209D01*
X155892961Y-98158400D01*
D12*
%TO.P,SW1,1,A*%
%TO.N,Net-(J1-Pad1)*%
X149834600Y-109819200D03*
D13*
%TO.P,SW1,2,B*%
%TO.N,Net-(J3-Pad2)*%
X149834600Y-112359200D03*
%TO.P,SW1,3,C*%
%TO.N,Net-(J2-Pad2)*%
X149834600Y-114899200D03*
%TD*%
D12*
%TO.P,J1,1,Pin_1*%
%TO.N,Net-(J1-Pad1)*%
X139776200Y-99735400D03*
D13*
%TO.P,J1,2,Pin_2*%
%TO.N,/GND*%
X139776200Y-102275400D03*
%TO.P,J1,3,Pin_3*%
%TO.N,/5V*%
X139776200Y-104815400D03*
%TD*%
D12*
%TO.P,J3,1,Pin_1*%
%TO.N,unconnected-(J3-Pad1)*%
X159435800Y-117271800D03*
D13*
%TO.P,J3,2,Pin_2*%
%TO.N,Net-(J3-Pad2)*%
X159435800Y-114731800D03*
%TO.P,J3,3,Pin_3*%
%TO.N,/TX*%
X159435800Y-112191800D03*
%TO.P,J3,4,Pin_4*%
%TO.N,/5V*%
X159435800Y-109651800D03*
%TO.P,J3,5,Pin_5*%
%TO.N,/GND*%
X159435800Y-107111800D03*
%TO.P,J3,6,Pin_6*%
%TO.N,unconnected-(J3-Pad6)*%
X159435800Y-104571800D03*
%TD*%
D14*
%TO.P,R1,1*%
%TO.N,Net-(J1-Pad1)*%
X145567400Y-102722600D03*
D15*
%TO.P,R1,2*%
%TO.N,/TX*%
X153187400Y-102722600D03*
%TD*%
D12*
%TO.P,J2,1,Pin_1*%
%TO.N,unconnected-(J2-Pad1)*%
X139750800Y-109626400D03*
D13*
%TO.P,J2,2,Pin_2*%
%TO.N,Net-(J2-Pad2)*%
X139750800Y-112166400D03*
%TO.P,J2,3,Pin_3*%
%TO.N,/TX*%
X139750800Y-114706400D03*
%TO.P,J2,4,Pin_4*%
%TO.N,/5V*%
X139750800Y-117246400D03*
%TO.P,J2,5,Pin_5*%
%TO.N,/GND*%
X139750800Y-119786400D03*
%TO.P,J2,6,Pin_6*%
%TO.N,unconnected-(J2-Pad6)*%
X139750800Y-122326400D03*
%TD*%
D16*
%TO.N,Net-(J1-Pad1)*%
X145567400Y-108569600D02*
X146817000Y-109819200D01*
X145567400Y-102722600D02*
X145567400Y-108569600D01*
%TO.N,Net-(J2-Pad2)*%
X144373600Y-112166400D02*
X147106400Y-114899200D01*
X139750800Y-112166400D02*
X144373600Y-112166400D01*
X147106400Y-114899200D02*
X149834600Y-114899200D01*
%TO.N,Net-(J3-Pad2)*%
X149921200Y-112445800D02*
X149834600Y-112359200D01*
X154432000Y-112445800D02*
X149921200Y-112445800D01*
X156718000Y-114731800D02*
X154432000Y-112445800D01*
X159435800Y-114731800D02*
X156718000Y-114731800D01*
%TO.N,Net-(J1-Pad1)*%
X146817000Y-109819200D02*
X149834600Y-109819200D01*
X144299300Y-102722600D02*
X145567400Y-102722600D01*
X139776200Y-99735400D02*
X141312100Y-99735400D01*
X141312100Y-99735400D02*
X144299300Y-102722600D01*
%TO.N,/GND*%
X150368000Y-97332800D02*
X138887200Y-97332800D01*
X139750800Y-119786400D02*
X139039600Y-119786400D01*
X139776200Y-102275400D02*
X138240300Y-102275400D01*
X137591800Y-101626900D02*
X138240300Y-102275400D01*
X136398000Y-103530400D02*
X137653000Y-102275400D01*
X155829000Y-102793800D02*
X150368000Y-97332800D01*
X155829000Y-105181400D02*
X155829000Y-102793800D01*
X139039600Y-119786400D02*
X136398000Y-117144800D01*
X157759400Y-107111800D02*
X155829000Y-105181400D01*
X136398000Y-117144800D02*
X136398000Y-103530400D01*
X159435800Y-107111800D02*
X157759400Y-107111800D01*
X137653000Y-102275400D02*
X138240300Y-102275400D01*
X138887200Y-97332800D02*
X137591800Y-98628200D01*
X137591800Y-98628200D02*
X137591800Y-101626900D01*
%TO.N,/5V*%
X163423600Y-119024400D02*
X159461200Y-122986800D01*
X159435800Y-109651800D02*
X160248600Y-109651800D01*
X137617200Y-115722400D02*
X137617200Y-108102400D01*
X163423600Y-112826800D02*
X163423600Y-119024400D01*
X146710400Y-122986800D02*
X140970000Y-117246400D01*
X139776200Y-105943400D02*
X139776200Y-104815400D01*
X159461200Y-122986800D02*
X146710400Y-122986800D01*
X140970000Y-117246400D02*
X139750800Y-117246400D01*
X137617200Y-108102400D02*
X139776200Y-105943400D01*
X139141200Y-117246400D02*
X137617200Y-115722400D01*
X160248600Y-109651800D02*
X163423600Y-112826800D01*
X139750800Y-117246400D02*
X139141200Y-117246400D01*
%TO.N,/TX*%
X153187400Y-108000800D02*
X153187400Y-102722600D01*
X140868400Y-114706400D02*
X147929600Y-121767600D01*
X162331400Y-113995200D02*
X160528000Y-112191800D01*
X162331400Y-118287800D02*
X162331400Y-113995200D01*
X159435800Y-112191800D02*
X157378400Y-112191800D01*
X139750800Y-114706400D02*
X140868400Y-114706400D01*
X158851600Y-121767600D02*
X162331400Y-118287800D01*
X160528000Y-112191800D02*
X159435800Y-112191800D01*
X147929600Y-121767600D02*
X158851600Y-121767600D01*
X157378400Y-112191800D02*
X153187400Y-108000800D01*
%TD*%
M02*
